<svg width="422" height="484" viewBox="0 0 422 484" fill="none" xmlns="http://www.w3.org/2000/svg">
<path d="M50 451L180 158L251 158L119 451L50 451Z" fill="#EAEAEA"/>
<path d="M129.056 84.9412C156.246 66.1882 188.89 56.9874 221.872 58.781C254.853 60.5747 286.307 73.2613 311.304 94.8524C336.3 116.443 353.426 145.718 359.996 178.088C366.567 210.459 362.211 244.094 347.611 273.722C333.011 303.35 308.992 327.297 279.321 341.808C249.649 356.319 216 360.574 183.65 353.907C151.3 347.239 122.076 330.026 100.56 304.965C79.0444 279.904 66.4521 248.412 64.7574 215.425L124.362 212.363C125.379 232.155 132.934 251.05 145.844 266.087C158.754 281.123 176.288 291.451 195.698 295.452C215.108 299.452 235.297 296.899 253.1 288.193C270.903 279.486 285.314 265.118 294.074 247.341C302.834 229.564 305.448 209.383 301.506 189.961C297.563 170.539 287.288 152.974 272.29 140.019C257.292 127.065 238.42 119.453 218.631 118.376C198.842 117.3 179.255 122.821 162.941 134.073L129.056 84.9412Z" fill="#EAEAEA"/>
<path d="M180 383H386V446H150L180 383Z" fill="#EAEAEA"/>
</svg>
